G04 MADE WITH FRITZING*
G04 WWW.FRITZING.ORG*
G04 DOUBLE SIDED*
G04 HOLES PLATED*
G04 CONTOUR ON CENTER OF CONTOUR VECTOR*
%ASAXBY*%
%FSLAX23Y23*%
%MOIN*%
%OFA0B0*%
%SFA1.0B1.0*%
%ADD10C,0.079370*%
%ADD11C,0.078000*%
%ADD12C,0.075000*%
%ADD13C,0.082778*%
%ADD14C,0.082750*%
%ADD15C,0.082000*%
%ADD16C,0.063000*%
%ADD17R,0.079370X0.079370*%
%ADD18R,0.075000X0.075000*%
%ADD19R,0.082778X0.082764*%
%ADD20R,0.082000X0.082000*%
%ADD21C,0.024000*%
%ADD22C,0.048000*%
%ADD23R,0.001000X0.001000*%
%LNCOPPER0*%
G90*
G70*
G54D10*
X1686Y644D03*
X1686Y344D03*
X1686Y1294D03*
X1686Y994D03*
G54D11*
X186Y894D03*
X186Y794D03*
X186Y694D03*
X186Y594D03*
G54D12*
X836Y1244D03*
X536Y1244D03*
X836Y1344D03*
X536Y1344D03*
X836Y1444D03*
X536Y1444D03*
G54D13*
X1036Y1244D03*
G54D14*
X1336Y1244D03*
G54D13*
X1036Y1444D03*
G54D14*
X1336Y1444D03*
G54D12*
X1036Y894D03*
X1436Y894D03*
G54D15*
X1086Y394D03*
X1186Y394D03*
X1286Y394D03*
G54D12*
X386Y1194D03*
X386Y794D03*
X186Y1044D03*
X186Y1444D03*
X1036Y744D03*
X1436Y744D03*
X1036Y1094D03*
X1436Y1094D03*
G54D16*
X536Y794D03*
X536Y694D03*
X536Y594D03*
X836Y594D03*
X836Y694D03*
X836Y794D03*
G54D17*
X1686Y644D03*
X1686Y1294D03*
G54D18*
X836Y1244D03*
G54D19*
X1036Y1244D03*
G54D20*
X1086Y394D03*
G54D21*
X87Y793D02*
X87Y1444D01*
D02*
X87Y1444D02*
X157Y1444D01*
D02*
X155Y793D02*
X87Y793D01*
D02*
X186Y1015D02*
X186Y924D01*
D02*
X335Y492D02*
X516Y674D01*
D02*
X85Y492D02*
X335Y492D01*
D02*
X87Y692D02*
X85Y492D01*
D02*
X155Y693D02*
X87Y692D01*
D02*
X287Y1143D02*
X360Y1181D01*
D02*
X287Y643D02*
X287Y1143D01*
D02*
X213Y607D02*
X287Y643D01*
G54D22*
D02*
X1236Y1044D02*
X1067Y917D01*
D02*
X1320Y1212D02*
X1236Y1044D01*
D02*
X1036Y1208D02*
X1036Y1133D01*
D02*
X1663Y1258D02*
X1457Y927D01*
G54D21*
D02*
X508Y794D02*
X414Y794D01*
G54D22*
D02*
X865Y570D02*
X1052Y421D01*
D02*
X1211Y429D02*
X1413Y711D01*
D02*
X1686Y952D02*
X1686Y686D01*
D02*
X1328Y388D02*
X1644Y349D01*
G54D21*
D02*
X507Y1444D02*
X214Y1444D01*
G54D22*
D02*
X1837Y1094D02*
X1837Y1445D01*
D02*
X1837Y1445D02*
X1435Y1445D01*
D02*
X1720Y1017D02*
X1837Y1094D01*
D02*
X1435Y1445D02*
X1436Y1133D01*
D02*
X1436Y854D02*
X1436Y783D01*
D02*
X871Y1361D02*
X1004Y1428D01*
D02*
X873Y784D02*
X997Y753D01*
G54D23*
D02*
G04 End of Copper0*
M02*