; NON-PLATED HOLES START AT T1
; THROUGH (PLATED) HOLES START AT T100
M48
INCH
T1C0.118110
T100C0.035000
T101C0.027222
T102C0.038000
T103C0.039370
T104C0.027194
T105C0.042000
T106C0.032000
%
T1
X000855Y000936
X018856Y000936
X000855Y015333
X018856Y015333
T100
X014356Y007436
X001856Y014436
X014356Y008936
X005356Y012436
X010356Y010936
X005356Y013436
X001856Y010436
X010356Y007436
X003856Y007936
X010356Y008936
X005356Y014436
X003856Y011936
X008356Y012436
X008356Y013436
X014356Y010936
X008356Y014436
T101
X010356Y014436
X010356Y012436
T102
X001856Y005936
X001856Y008936
X001856Y006936
X001856Y007936
T103
X016856Y012936
X016856Y003436
X016856Y009936
X016856Y006436
T104
X013356Y014436
X013356Y012436
T105
X012856Y003936
X011856Y003936
X010856Y003936
T106
X008356Y006936
X008356Y007936
X005356Y005936
X005356Y006936
X005356Y007936
X008356Y005936
T00
M30
